PathFileType	4	(X/Y/Z)	/Users/itak/Documents/Research/Walk-IL/dataset/trc/00363_00011.trc
DataRate	CameraRate	NumFrames	NumMarkers	Units	OrigDataRate	OrigDataStartFrame	OrigNumFrames
100.000000	100.000000	4	56	mm	100.000000	208	416
Frame#	Time	RPSI			LPSI			L3			STRN			T10			C7			CLAV			RBAK			LBAK			LSHO			LUPA			LAEL			LAOL			LWPS			LFRA			LHPS			LHTS			RSHO			RUPA			RAEL			RAOL			RWPS			RFRA			RIFD			RHTS			RHPS			RBHD			LFHD			RFHD			LBHD			LHIP			RHIP			RASI			LASI			LKNE			LTHI			LANK			LTIP			LTOE			LMT1			LMT5			LHEE			RKNE			RTIP			RTOE			RMT1			RMT5			RHEE			LWTS			LIFD			RWTS			RTHI			RANK			*53			*54			*55			
		X1	Y1	Z1	X2	Y2	Z2	X3	Y3	Z3	X4	Y4	Z4	X5	Y5	Z5	X6	Y6	Z6	X7	Y7	Z7	X8	Y8	Z8	X9	Y9	Z9	X10	Y10	Z10	X11	Y11	Z11	X12	Y12	Z12	X13	Y13	Z13	X14	Y14	Z14	X15	Y15	Z15	X16	Y16	Z16	X17	Y17	Z17	X18	Y18	Z18	X19	Y19	Z19	X20	Y20	Z20	X21	Y21	Z21	X22	Y22	Z22	X23	Y23	Z23	X24	Y24	Z24	X25	Y25	Z25	X26	Y26	Z26	X27	Y27	Z27	X28	Y28	Z28	X29	Y29	Z29	X30	Y30	Z30	X31	Y31	Z31	X32	Y32	Z32	X33	Y33	Z33	X34	Y34	Z34	X35	Y35	Z35	X36	Y36	Z36	X37	Y37	Z37	X38	Y38	Z38	X39	Y39	Z39	X40	Y40	Z40	X41	Y41	Z41	X42	Y42	Z42	X43	Y43	Z43	X44	Y44	Z44	X45	Y45	Z45	X46	Y46	Z46	X47	Y47	Z47	X48	Y48	Z48	X49	Y49	Z49	X50	Y50	Z50	X51	Y51	Z51	X52	Y52	Z52	X53	Y53	Z53	X54	Y54	Z54	X55	Y55	Z55	X56	Y56	Z56	

209	2.08	91.26152801513672	944.0610961914062	553.7420043945312	5.036046981811523	932.9197998046875	460.2585754394531	55.09564971923828	997.5969848632812	516.5289306640625	200.5774230957031	1175.803955078125	329.4172973632812	52.19319534301758	1116.496948242188	520.1303100585938	70.54963684082031	1361.84033203125	468.2857055664062	169.429443359375	1302.932006835938	351.9392700195312	94.7528076171875	1226.71630859375	555.7332153320312	-16.60359764099121	1324.881713867188	419.990478515625	-11.95164108276367	1337.065795898438	318.2770690917969	-94.77336120605469	1233.118774414062	325.1271667480469	-152.5197448730469	1044.950805664062	362.7295227050781	-109.8893585205078	1037.672973632812	437.5686340332031	-237.1509552001953	802.9879150390625	382.7521362304688	-189.5433044433594	948.842041015625	376.5848693847656	-255.8383636474609	741.88671875	409.1324157714844	-219.2692413330078	714.3616943359375	364.4129638671875	230.0516357421875	1355.918334960938	525.3246459960938	279.2294311523438	1297.697387695312	572.0014038085938	411.6205749511719	1063.993896484375	584.2305297851562	334.105712890625	1020.477661132812	550.1530151367188	578.6373291015625	885.9654541015625	513.9938354492188	463.1971435546875	1015.315124511719	567.0250244140625	655.3397827148438	766.1031494140625	415.8243408203125	629.9513549804688	835.9620361328125	420.7079467773438	628.55224609375	823.6990356445312	488.9309387207031	187.5143127441406	1572.640625	458.3741760253906	147.7696990966797	1564.977661132812	253.1044311523438	235.59619140625	1569.300048828125	302.5358276367188	50.6188850402832	1564.560302734375	412.1487731933594	5.240033149719238	873.039306640625	325.8696594238281	222.6367340087891	893.3359985351562	590.3300170898438	277.9420471191406	914.2304077148438	489.7411193847656	136.2435913085938	901.331787109375	296.582763671875	182.5809020996094	447.5124206542969	228.6539764404297	127.2696304321289	573.4535522460938	242.5993957519531	290.5828247070312	35.99402236938477	205.8963470458984	222.3585052490234	232.0205688476562	208.0810241699219	393.4814147949219	110.9652328491211	37.36966705322266	419.6413269042969	81.6839599609375	107.3415679931641	308.823486328125	67.09619140625	86.76381683349609	344.3152770996094	37.32017135620117	259.1488952636719	176.7646179199219	444.0759582519531	625.14013671875	145.95849609375	327.4739990234375	647.1799926757812	133.6378021240234	39.88689804077148	620.282470703125	66.06031036376953	39.12285995483398	608.8173828125	87.79092407226562	38.60142135620117	726.001953125	-66.89928436279297	91.61457061767578	736.5057373046875	-178.1514434814453	782.0287475585938	352.1279602050781	-234.5897521972656	637.8613891601562	401.6764526367188	552.311279296875	903.0377807617188	443.7521362304688	259.2267150878906	687.275390625	577.6674194335938	-2.189718723297119	75.83266448974609	756.0296630859375	nan	nan	nan	nan	nan	nan	nan	nan	nan	
210	2.09	98.59276580810547	942.6708984375	544.9368286132812	12.1879940032959	931.7281494140625	451.7745056152344	62.27526473999023	996.1708984375	508.0124816894531	206.4935302734375	1174.846557617188	320.2996520996094	59.00596237182617	1115.161499023438	511.6559448242188	76.50515747070312	1360.596557617188	459.8827514648438	175.1385345458984	1301.872680664062	343.1061401367188	101.2195053100586	1225.37744140625	547.0125122070312	-10.79192543029785	1323.448364257812	411.83447265625	-6.504972457885742	1335.574462890625	310.0428161621094	-88.51081085205078	1230.944458007812	317.1708984375	-144.5656433105469	1042.4814453125	355.6931762695312	-101.5389633178711	1035.736206054688	430.3487548828125	-227.7236785888672	800.2324829101562	377.8963928222656	-180.8064575195312	946.289794921875	370.2926940917969	-245.9560089111328	739.3779296875	405.3158264160156	-209.3002624511719	711.40478515625	360.9739990234375	236.3107452392578	1354.670043945312	516.3696899414062	285.4880065917969	1296.302856445312	562.871826171875	416.6349487304688	1061.826904296875	574.994873046875	338.7211608886719	1018.687866210938	541.4465942382812	582.44384765625	883.2750244140625	503.1840515136719	467.9081420898438	1012.908996582031	557.6450805664062	658.0980834960938	763.9066772460938	403.6156616210938	632.9688110351562	833.760009765625	409.218994140625	631.9425048828125	821.0237426757812	477.3165283203125	193.2230224609375	1571.383178710938	450.5537719726562	152.7348175048828	1564.672119140625	245.4086608886719	240.7313232421875	1568.8876953125	294.5799865722656	56.11949157714844	1563.305297851562	404.7698059082031	12.18962478637695	872.7117919921875	317.0824584960938	230.0256652832031	891.75830078125	581.2151489257812	285.3198547363281	912.9066162109375	480.644287109375	143.2908020019531	900.9472045898438	287.5458068847656	189.2424774169922	447.307861328125	219.0155181884766	135.0808563232422	574.2239990234375	231.9001770019531	292.577880859375	35.01805114746094	204.8742980957031	227.4112396240234	229.9811553955078	202.6034240722656	395.3780212402344	102.986442565918	33.66828155517578	421.6182861328125	74.47837829589844	104.1600036621094	310.4080200195312	62.5985221862793	84.938720703125	346.9278869628906	35.83557510375977	257.4857788085938	183.732421875	443.5171813964844	617.8416137695312	151.4415740966797	327.6811218261719	641.916015625	133.8948211669922	40.03409194946289	620.3897094726562	66.62089538574219	39.67400360107422	608.6911010742188	88.80419158935547	39.52301788330078	725.840087890625	-64.65880584716797	96.86461639404297	735.8948974609375	-168.7236633300781	779.1640014648438	347.329833984375	-223.9837799072266	635.3836059570312	399.5715637207031	555.6927490234375	900.8819580078125	433.23388671875	266.7205200195312	686.0897216796875	569.1614990234375	-0.2437611818313599	79.80345153808594	755.457763671875	nan	nan	nan	nan	nan	nan	nan	nan	nan	
211	2.1	106.0898513793945	941.3740844726562	535.8724975585938	19.43663024902344	930.7999267578125	442.9742736816406	69.57802581787109	994.9091796875	499.2733459472656	212.3956604003906	1174.242065429688	310.9793395996094	65.83624267578125	1113.977294921875	503.1722412109375	82.38626861572266	1359.563598632812	451.4036254882812	180.7939147949219	1301.13525390625	334.1724548339844	107.6246948242188	1224.223999023438	538.164794921875	-5.057034969329834	1322.203735351562	403.5740661621094	-1.129137754440308	1334.32275390625	301.7308349609375	-82.28372955322266	1228.972534179688	309.0448913574219	-136.5401306152344	1040.139404296875	348.3218994140625	-93.19474792480469	1033.94287109375	422.834716796875	-217.8714294433594	797.4444580078125	372.3937683105469	-171.9050140380859	943.7888793945312	363.5342102050781	-235.5763549804688	736.8071899414062	400.8051452636719	-198.6860961914062	708.47265625	356.9261169433594	242.4784393310547	1353.647827148438	507.3613891601562	291.6236572265625	1295.134887695312	553.7254638671875	421.3396911621094	1059.783325195312	565.7987060546875	342.9822387695312	1017.099243164062	532.8934936523438	585.7077026367188	880.4497680664062	492.480224609375	472.2526245117188	1010.545776367188	548.3069458007812	659.9321899414062	761.2647705078125	391.6101684570312	635.2000732421875	831.1693725585938	397.844482421875	634.6395874023438	818.0902099609375	465.8618469238281	198.8303833007812	1570.393798828125	442.6508178710938	157.6318054199219	1564.658813476562	237.6141815185547	245.8064270019531	1568.7734375	286.53271484375	61.53504180908203	1562.297729492188	397.2789916992188	19.15780258178711	872.7627563476562	307.8702087402344	237.6031646728516	890.2318115234375	571.7218017578125	292.8192749023438	911.7010498046875	471.1480407714844	150.3675537109375	900.9301147460938	278.1453247070312	195.5167846679688	447.1826171875	209.5293121337891	142.4015502929688	574.921630859375	221.32421875	294.4100036621094	34.66895294189453	204.4015197753906	232.4360046386719	228.2108764648438	197.3127899169922	397.3066101074219	94.77863311767578	30.42010688781738	423.4615478515625	67.0645751953125	101.5427627563477	311.9232788085938	58.49312973022461	83.68071746826172	349.3741760253906	34.85345840454102	256.3410034179688	191.1725311279297	443.0966796875	609.964599609375	157.3722076416016	328.1206665039062	636.228759765625	134.1775665283203	40.24206924438477	620.5712890625	67.37706756591797	40.29789733886719	608.5701904296875	90.03421783447266	40.60954284667969	725.7147216796875	-61.97623443603516	102.7543334960938	734.9750366210938	-158.7553558349609	776.4000244140625	342.0147705078125	-212.6537017822266	632.9319458007812	396.7864990234375	558.45361328125	898.5105590820312	422.8456726074219	274.5347595214844	684.966552734375	559.9677124023438	2.079192161560059	84.27355194091797	754.6650390625	nan	nan	nan	nan	nan	nan	nan	nan	nan	
212	2.11	113.7393646240234	940.2017822265625	526.5628662109375	26.73015975952148	930.1760864257812	433.870849609375	76.97291564941406	993.8560180664062	490.3238830566406	218.2913970947266	1174.02197265625	301.5128173828125	72.66970062255859	1112.985229492188	494.6617431640625	88.20088195800781	1358.786254882812	442.8773498535156	186.4034118652344	1300.75244140625	325.1714782714844	113.9638214111328	1223.300048828125	529.2119750976562	0.6061451435089111	1321.184692382812	395.235595703125	4.1865234375	1333.343017578125	293.3707885742188	-76.09066772460938	1227.23388671875	300.7809143066406	-128.4619750976562	1037.960205078125	340.6359252929688	-84.86405181884766	1032.31884765625	415.0516357421875	-207.6186218261719	794.65234375	366.2191772460938	-162.8648376464844	941.3757934570312	356.3236389160156	-224.7050170898438	734.1859130859375	395.57080078125	-187.4401397705078	705.6012573242188	352.2140197753906	248.5645141601562	1352.883056640625	498.337890625	297.642822265625	1294.211547851562	544.5982055664062	425.7404479980469	1057.890014648438	556.6555786132812	346.9136352539062	1015.73046875	524.4690551757812	588.4517822265625	877.5379638671875	481.8986511230469	476.2349853515625	1008.256103515625	539.0131225585938	660.8487548828125	758.1953125	379.8616027832031	636.6511840820312	828.2109985351562	386.6109924316406	636.6754760742188	814.9325561523438	454.59130859375	204.3410491943359	1569.724487304688	434.6693725585938	162.4586639404297	1564.952514648438	229.7323150634766	250.8138427734375	1568.98095703125	278.39990234375	66.87162780761719	1561.583374023438	389.6940612792969	26.08349227905273	873.1797485351562	298.2648010253906	245.3572845458984	888.8173217773438	561.860107421875	300.4059143066406	910.6543579101562	461.2485046386719	157.4131469726562	901.2457275390625	268.4248352050781	201.4517517089844	447.1325378417969	200.2254791259766	149.1474761962891	575.4739990234375	211.0460815429688	296.2353820800781	34.94777679443359	204.1381988525391	237.4843139648438	226.8561248779297	192.0094146728516	399.4638061523438	86.68014526367188	27.45040512084961	425.3252868652344	59.76063537597656	99.28163146972656	313.5707702636719	54.98401260375977	82.69940185546875	351.7730712890625	34.43481826782227	255.4084014892578	199.1517486572266	442.8772277832031	601.449951171875	163.85546875	328.8366394042969	630.0850830078125	134.4872589111328	40.50182342529297	620.8284912109375	68.36643981933594	40.98574066162109	608.443603515625	91.50968933105469	41.87156295776367	725.6117553710938	-58.71355819702148	109.3310546875	733.6605224609375	-148.2723846435547	773.78662109375	336.1502380371094	-200.6070861816406	630.5315551757812	393.236328125	560.611328125	895.9561157226562	412.6025390625	282.6599731445312	683.948974609375	550.0548095703125	4.873555660247803	89.28118133544922	753.58251953125	nan	nan	nan	nan	nan	nan	nan	nan	nan	
